<svg width="74" height="74" fill="none" xmlns="http://www.w3.org/2000/svg"><g clip-path="url(#clip0_104_1069)" fill="#CECECE"><path d="M20.073 50.671l3.256 3.256-3.201 3.201-3.256-3.256 3.2-3.2zm8.098 3.298l4.884 4.884-1.6 1.6-4.884-4.884 1.6-1.6zM15.148 40.944l4.883 4.884-1.6 1.6-4.884-4.883 1.6-1.6zm17.824 8.223l-2.442-2.442 7.982-7.982a94.429 94.429 0 00-3.255-3.256l-7.983 7.982-2.442-2.442-1.6 1.6 8.14 8.14 1.6-1.6z"/><path d="M33.568 33.92a75.49 75.49 0 00-3.515-2.998l-6.062 6.063 3.256 3.256 6.32-6.32zM23.26 45.856l4.884 4.884-3.2 3.201-4.885-4.884 3.201-3.2zm28.049-23.164c-3.05-3.05-5.852-5.584-8.337-7.652l-2.218.298 17.908 17.908.298-2.218c-2.068-2.485-4.602-5.286-7.651-8.336zM24.512 33.208l3.706-3.707c-4.097-3.028-6.892-4.206-7.567-3.832-.144.28.072 2.427 3.86 7.539zm18.566 10.738a75.47 75.47 0 00-2.998-3.514l-6.321 6.32 3.256 3.257 6.063-6.063zm-1.372-11.652a91.345 91.345 0 016.18 6.844l1.932-1.932-13.024-13.024-1.932 1.932a91.363 91.363 0 016.843 6.18z"/><path d="M40.105 33.894c-8.632-8.632-15.17-12.026-16.254-11.424l-1.22 1.22c4.574 1.449 11.574 7.504 15.874 11.805 4.3 4.3 10.354 11.298 11.804 15.872l1.234-1.234c.589-1.068-2.805-7.606-11.438-16.239zm23.629-7.348c.48.63.943 1.255 1.382 1.874L75.48 18.056 64.084 6.66l-4.801 4.801 9.768 9.768-5.317 5.317zm.405-13.429l-1.628-1.628 1.6-1.6 1.629 1.628-1.6 1.6zm3.256 3.256l-1.628-1.628 1.6-1.6 1.629 1.628-1.6 1.6zM69.023 18l1.6-1.6 1.629 1.628-1.6 1.6L69.022 18zm-3.05 24.151c.114-.962-1.5-4.088-5.035-8.661l-.423 3.153-3.076.59c5.329 4.117 7.87 4.958 8.534 4.918zm-8.805-7.197L39.045 16.83l-1.03 5.372 13.782 13.78 5.371-1.03z"/><path d="M62.298 24.726l3.525-3.525L52.799 8.177l-3.525 3.525a91.2 91.2 0 016.836 6.188 91.218 91.218 0 016.188 6.836zm5.492 15.549c.99-2.235-3.364-10.868-13.28-20.784C44.594 9.575 35.96 5.22 33.726 6.211 40.334 8.576 52.29 20.471 52.91 21.09c.62.62 12.515 12.576 14.881 19.184zm-30.434-26.79l3.153-.423c-4.571-3.534-7.699-5.15-8.661-5.035-.04.663.801 3.205 4.918 8.535l.59-3.077zm7.142 32.295l-3.707 3.708c5.093 3.774 7.242 4 7.562 3.834l.005-.006c.352-.663-.834-3.447-3.86-7.536zm-1.73 16.384l3.256 3.256-3.2 3.2-3.257-3.256 3.201-3.2zm-9.685-.084l3.256 3.257-3.2 3.2-3.257-3.256 3.201-3.2zm4.801-4.8l3.256 3.256-3.2 3.201-3.256-3.256 3.2-3.2zm4.967 14.569l3.256 3.256-3.2 3.2-3.257-3.256 3.201-3.2zm4.801-4.802l3.256 3.256-3.2 3.201-3.256-3.256 3.2-3.2zm-9.685-.082l3.256 3.256-3.2 3.2-3.257-3.255 3.201-3.201zM8.663 37.661l3.256 3.256-3.2 3.2-3.257-3.255 3.201-3.2zm-9.768-9.768l3.256 3.256-3.2 3.2-3.257-3.255 3.201-3.2zm4.801-4.801l3.256 3.256-3.2 3.2-3.257-3.255 3.201-3.201zm4.884 4.884l3.257 3.256-3.201 3.2-3.256-3.256 3.2-3.2zm4.884 4.884l3.256 3.256-3.2 3.2-3.256-3.255 3.2-3.201zm-9.684-.083l3.255 3.256-3.2 3.2-3.257-3.255 3.201-3.201z"/></g><defs><clipPath id="clip0_104_1069"><path fill="#fff" d="M0 0h74v74H0z"/></clipPath></defs></svg>