<svg width="66" height="64" fill="none" xmlns="http://www.w3.org/2000/svg"><path fill-rule="evenodd" clip-rule="evenodd" d="M63.614 33.933h-8.04V30.66h8.04v3.273z" fill="#CECECE"/><path d="M58.51 28.623V10.837h2.168v17.786H58.51z" fill="#CECECE"/><path fill-rule="evenodd" clip-rule="evenodd" d="M57.32 31.022h4.547v-1.846c0-.9-.736-1.637-1.636-1.637h-1.274c-.9 0-1.637.736-1.637 1.636v1.847zm-12.5-16.828c9.737-.136 6.91-3.151 15.858-3.09V.222C51.73.159 54.558 3.174 44.82 3.309l4.903 4.65-4.903 6.235zM27.971 31.635l-8.732 8.732-4.025-4.025-7.338 7.337-2.053-2.053 9.39-9.39 4.026 4.025 8.732-8.733 4.31 4.31 9.095-9.086-2.652-2.652 8.445-1.087-1.087 8.445-2.653-2.653L32.28 35.944l-4.31-4.31zM12.332 55.47H.48v8.31h11.852v-8.31zm1.445-3.071V63.78H25.63V52.399H13.777zm13.297-4.116v15.498h11.852V48.283H27.074zm13.298-5.515v21.013h11.85V42.768h-11.85zm13.296-7.389V63.78H65.52V35.379H53.668z" fill="#CECECE"/></svg>