<svg width="74" height="74" fill="none" xmlns="http://www.w3.org/2000/svg"><g clip-path="url(#clip0_101_447)" fill="#CECECE"><path fill-rule="evenodd" clip-rule="evenodd" d="M42.037 53.959v-6.482H14.631a.891.891 0 010-1.782h1.837v-27.26a.891.891 0 01.891-.89h6.865a.892.892 0 01.89.89v27.26h1.969V27.43a.892.892 0 01.891-.892h6.865a.892.892 0 01.891.892v18.265h1.967V33.512a.891.891 0 01.891-.892h6.865a.891.891 0 01.891.892v3.916h6.218V11.11a1.654 1.654 0 00-1.647-1.648h-7.486v1.01a.892.892 0 01-.891.892H18.656a.892.892 0 01-.891-.892v-1.01h-7.484a1.655 1.655 0 00-1.647 1.648v43.91h5.704a3.437 3.437 0 013.43 3.43v6.153h2.986A12.438 12.438 0 0142.038 53.96h-.001zm1.192-25.744l-5.324-3.077a.884.884 0 01-.393-.473l-1.343-3.785-10.443-4.914a.889.889 0 11.759-1.607l10.753 5.06a.887.887 0 01.484.518l1.356 3.826 5.27 3.044-.706-2.227a.89.89 0 011.698-.536l1.276 4.032a.892.892 0 01-.581 1.117l-4.032 1.276a.89.89 0 01-.536-1.698l1.762-.556z"/><path fill-rule="evenodd" clip-rule="evenodd" d="M43.81 68.71l.005 4.246a1.17 1.17 0 001.16 1.156h23.533a1.162 1.162 0 001.157-1.156V40.367a1.162 1.162 0 00-1.157-1.156H44.975a1.162 1.162 0 00-1.157 1.156v15.985a12.451 12.451 0 01-.009 12.359v-.001zm18.489-2.18h3.026a1.462 1.462 0 011.458 1.458v2.553A1.518 1.518 0 0165.324 72H62.3a1.445 1.445 0 01-1.458-1.459v-2.553a1.465 1.465 0 011.458-1.459zm0-6.288h3.026a1.462 1.462 0 011.458 1.458v2.554a1.462 1.462 0 01-1.459 1.458H62.3a1.462 1.462 0 01-1.458-1.458V61.7a1.465 1.465 0 011.458-1.458zm0-6.288h3.026a1.462 1.462 0 011.458 1.459v2.553a1.462 1.462 0 01-1.459 1.459H62.3a1.462 1.462 0 01-1.458-1.459v-2.553a1.465 1.465 0 011.458-1.459zm-14.139 0h3.025a1.46 1.46 0 011.459 1.459v2.553a1.46 1.46 0 01-1.459 1.459H48.16a1.46 1.46 0 01-1.458-1.459v-2.553a1.46 1.46 0 011.458-1.459zm0 6.288h3.025a1.46 1.46 0 011.459 1.458v2.554a1.46 1.46 0 01-1.459 1.458H48.16a1.46 1.46 0 01-1.458-1.458V61.7a1.46 1.46 0 011.458-1.458zm0 6.287h3.025a1.46 1.46 0 011.459 1.459v2.553A1.46 1.46 0 0151.185 72H48.16a1.46 1.46 0 01-1.458-1.459v-2.553a1.46 1.46 0 011.458-1.459zm7.07 0h3.025a1.463 1.463 0 011.459 1.459v2.553A1.518 1.518 0 0158.255 72h-3.026a1.46 1.46 0 01-1.459-1.459v-2.553a1.46 1.46 0 011.459-1.459zm0-6.287h3.025a1.463 1.463 0 011.459 1.458v2.554a1.463 1.463 0 01-1.459 1.458h-3.026a1.46 1.46 0 01-1.459-1.458V61.7a1.46 1.46 0 011.459-1.458zm0-6.288h3.025a1.469 1.469 0 011.459 1.459v2.553a1.445 1.445 0 01-1.459 1.459h-3.026a1.46 1.46 0 01-1.459-1.459v-2.553a1.46 1.46 0 011.459-1.459zm-8.008-12.212h19.039a1.31 1.31 0 011.305 1.305v7.145a1.312 1.312 0 01-1.305 1.306H47.222a1.31 1.31 0 01-1.305-1.306v-7.145a1.31 1.31 0 011.305-1.305z"/><path d="M47.698 43.523h18.086v6.193H47.698v-6.193z"/><path fill-rule="evenodd" clip-rule="evenodd" d="M42.037 45.695v-5.329a2.945 2.945 0 012.524-2.908v-3.056h-5.084v11.293h2.56zm12.305-8.267h2.516V11.11a5.965 5.965 0 00-5.945-5.945h-7.484V7.68h7.484a3.437 3.437 0 013.429 3.429v26.318zM16.879 66.385a.887.887 0 01-.69-.324l-9.045-9.49a.89.89 0 01-.292-.66V11.11a3.437 3.437 0 013.43-3.429h7.483V5.165H10.28a5.965 5.965 0 00-5.945 5.945v51.846a5.965 5.965 0 005.945 5.946h12.06a12.37 12.37 0 01-1.147-2.517H16.88z"/><path fill-rule="evenodd" clip-rule="evenodd" d="M15.985 63.272V58.45a1.655 1.655 0 00-1.648-1.648H9.82l6.166 6.47zm9.498 6.786a10.657 10.657 0 10-3.121-7.535 10.853 10.853 0 003.12 7.535zm6.644-15.402a.891.891 0 111.781 0v7.267l5.77 2.338a.89.89 0 01-.669 1.65l-6.282-2.546a.891.891 0 01-.6-.842v-7.867zM19.546 9.581h22.102V3.244l-5.58-.003a.887.887 0 01-.873-.731c-.126-.69-.649-1.324-1.419-1.796a6.539 6.539 0 00-6.358 0c-.747.458-1.261 1.067-1.406 1.733a.891.891 0 01-.886.797h-5.58v6.337z"/><path d="M18.249 19.326h5.083v26.37H18.25v-26.37zm10.614 8.994h5.084v17.375h-5.084V28.32zm33.759 39.99H65v1.908h-2.378V68.31zm0-6.287H65v1.907h-2.378v-1.907zm0-6.288H65v1.907h-2.378v-1.907zm-7.07 12.575h2.379v1.908h-2.379V68.31zm0-6.287h2.379v1.907h-2.379v-1.907zm0-6.288h2.379v1.907h-2.379v-1.907zm-7.07 12.575h2.38v1.908h-2.38V68.31zm0-6.287h2.38v1.907h-2.38v-1.907zm0-6.288h2.38v1.907h-2.38v-1.907z"/></g><defs><clipPath id="clip0_101_447"><path fill="#fff" d="M0 0h74v74H0z"/></clipPath></defs></svg>