<svg width="74" height="74" fill="none" xmlns="http://www.w3.org/2000/svg"><path fill-rule="evenodd" clip-rule="evenodd" d="M28.798 6.299h33.867V.069H32.434l-3.636 6.23zm-2.544 0l3.602-6.23H6.624v6.23h19.63zm-2.953-2.663c0 .632-.563 1.144-1.143 1.144h-1.656a1.144 1.144 0 01-1.144-1.144c0-.649.512-1.16 1.144-1.16h1.656c.631 0 1.143.511 1.143 1.16zm-5.155 0c0 .632-.512 1.144-1.144 1.144h-1.655a1.144 1.144 0 01-1.144-1.144c0-.649.512-1.16 1.144-1.16h1.655c.632 0 1.144.511 1.144 1.16zm-5.087 0c0 .632-.58 1.144-1.144 1.144H10.26c-.65 0-1.161-.512-1.161-1.144 0-.649.512-1.16 1.16-1.16h1.656c.632 0 1.144.511 1.144 1.16zm24.325 12.478H58.91c.632 0 1.144.512 1.144 1.144 0 .632-.58 1.144-1.212 1.144H37.384a1.144 1.144 0 010-2.288zm0 3.824H58.91c.632 0 1.144.495 1.144 1.144 0 .631-.58 1.144-1.212 1.144H37.384a1.144 1.144 0 01-1.143-1.144c0-.649.512-1.144 1.143-1.144zm10.31 14.254c0-6.043 4.917-10.942 10.96-10.942 1.417 0 2.765.256 4.011.75V8.536H6.625v30.76h42.334a10.914 10.914 0 01-1.263-5.103zM11.71 12.359h20.57c.649 0 1.161.495 1.161 1.144v20.57c0 .631-.512 1.075-1.092 1.075H11.71a1.144 1.144 0 01-1.144-1.144V13.503c0-.649.512-1.144 1.143-1.144zM37.384 23.88h11.967c.648 0 1.143.512 1.143 1.144 0 .632-.563 1.144-1.143 1.144H37.384a1.144 1.144 0 010-2.288zm0 3.824h8.723a1.144 1.144 0 010 2.288h-8.723a1.144 1.144 0 010-2.288zm-1.143-14.27c0-.632.512-1.144 1.143-1.144H58.91c.632 0 1.144.512 1.144 1.143 0 .632-.58 1.144-1.212 1.144H37.384a1.144 1.144 0 01-1.143-1.144z" fill="#CECECE"/><path fill-rule="evenodd" clip-rule="evenodd" d="M22.038 15.159c2.868 0 5.155 2.355 5.155 5.223 0 2.8-2.287 5.155-5.155 5.155-2.868 0-5.224-2.287-5.224-5.155 0-2.868 2.356-5.224 5.224-5.224zm4.387 17.121c0-2.407-1.98-4.455-4.387-4.455-2.424 0-4.455 1.98-4.455 4.455 0 .239-.086.46-.205.649h9.235a1.202 1.202 0 01-.188-.649z" fill="#CECECE"/><path fill-rule="evenodd" clip-rule="evenodd" d="M1.024 46.295h71.952V8.143h-8.023V25.23c2.816 1.997 4.66 5.258 4.66 8.962 0 6.06-4.916 10.96-10.96 10.96a10.938 10.938 0 01-8.09-3.569H5.53a1.144 1.144 0 01-1.144-1.143V8.143H1.024v38.152z" fill="#CECECE"/><path fill-rule="evenodd" clip-rule="evenodd" d="M58.654 42.983a8.695 8.695 0 008.723-8.723 8.73 8.73 0 00-3.977-7.34 1.228 1.228 0 01-.359-.205 8.645 8.645 0 00-4.387-1.178c-4.78 0-8.723 3.875-8.723 8.723 0 1.963.649 3.79 1.758 5.258.154.12.29.273.359.444a8.73 8.73 0 006.606 3.021zm-3.107-4.114l-3.892-4.165c-.46-.444-.392-1.144.051-1.587.444-.444 1.144-.376 1.605.068l3.158 3.363 7.596-7.136c.444-.444 1.144-.375 1.588.069.444.443.393 1.143-.051 1.604l-8.228 7.665a2.17 2.17 0 01-.188.222 1.666 1.666 0 01-.597.307h-.069l-.017.017h-.085c-.307 0-.563-.137-.82-.393l-.05-.034zM1.024 55.342h71.952v-6.76H1.024v6.76zm16.746-2.287h-3.38a1.148 1.148 0 01-1.143-1.161c0-.632.512-1.144 1.143-1.144h3.38c.632 0 1.144.512 1.144 1.144 0 .648-.58 1.16-1.144 1.16zm-8.227 0H6.18c-.649 0-1.144-.513-1.144-1.161 0-.632.495-1.144 1.144-1.144h3.363c.648 0 1.16.512 1.16 1.144a1.15 1.15 0 01-1.16 1.16zm46.38 19.357c0-.836-.717-1.536-1.537-1.536H19.614c-.837 0-1.536.7-1.536 1.536 0 .82.7 1.52 1.536 1.52h34.772c.82 0 1.537-.7 1.537-1.52zm-12.854-3.755c-1.707-3.943-1.724-7.562-.069-11.027H31.138c1.638 3.414 1.587 7.05-.103 11.027H43.07z" fill="#CECECE"/><path d="M13 15h18v18H13V15z" fill="#CECECE"/><path d="M19 15v7.276a.3.3 0 00.512.212l2.276-2.276a.3.3 0 01.424 0l2.276 2.276a.3.3 0 00.512-.212V15" stroke="#000" stroke-width="2"/></svg>