<svg width="74" height="74" fill="none" xmlns="http://www.w3.org/2000/svg"><path d="M51.916 15.02c-1.896 1.896-1.862 5.006.058 6.925 1.93 1.931 5.03 1.954 6.926.058s1.861-5.006-.058-6.926c-1.885-1.873-5.041-1.954-6.926-.058zM39.37 52.32c3.746 2.683 3.608 8.846 3.423 14.858 6.787-8.602 12.314-19.367 10.244-27.3-4.405 4.29-9.042 8.36-13.667 12.442zM22.038 38.607c-.729 1.78-2.116 3.099-3.515 4.081 6.024 4.059 8.649 6.707 12.719 12.742 1.237-1.572 2.601-2.717 4.128-3.445a49.097 49.097 0 00-13.332-13.378zm-.474-4.105c4.15-4.625 8.336-9.215 12.742-13.597-7.955-2.301-18.893 3.295-27.6 10.163 1.249-.034 2.51-.07 3.735-.07 4.683.012 8.995.533 11.123 3.504z" fill="#CECECE"/><path d="M70.462 3.48c-4.336-.092-8.603.971-12.557 2.717-6.868 3.03-12.788 7.898-18.246 12.95C33.82 24.56 28.48 30.48 23.16 36.4a51.523 51.523 0 0114.327 14.326c5.168-4.544 10.348-9.089 15.227-13.945 13.124-13.042 18.5-23.079 17.749-33.3zM36.884 38.723l-1.838 1.85c-.463.474-1.26.474-1.734 0a1.235 1.235 0 010-1.735l1.838-1.85c1.122-1.11 2.856.625 1.734 1.735zM47.88 27.715l-7.365 7.377a1.216 1.216 0 01-.867.358c-.312 0-.625-.115-.867-.358a1.235 1.235 0 010-1.734l7.365-7.377a1.225 1.225 0 011.734 0 1.235 1.235 0 010 1.734zm7.62-1.85a7.38 7.38 0 01-5.25-2.185c-2.82-2.821-2.902-7.562-.057-10.395 2.833-2.833 7.573-2.752 10.383.058 4.475 4.498 1.376 12.522-5.076 12.522zM20.431 53.534a1.235 1.235 0 00-1.734 0L3.827 68.45a1.235 1.235 0 000 1.734c.474.463 1.26.474 1.735 0L20.43 55.27a1.235 1.235 0 000-1.735zm4.521.971L11.424 68.057a1.235 1.235 0 000 1.734c.462.463 1.26.474 1.734 0L26.675 56.24a1.235 1.235 0 000-1.735 1.221 1.221 0 00-1.723 0zM5.966 62.588l13.528-13.563a1.235 1.235 0 000-1.734 1.235 1.235 0 00-1.734 0L4.243 60.853a1.235 1.235 0 000 1.735c.463.462 1.26.462 1.723 0z" fill="#CECECE"/></svg>