<svg width="74" height="74" fill="none" xmlns="http://www.w3.org/2000/svg"><path d="M8.094 21.969H3.469v17.343h4.625V21.97zm11.821 19.656h.898a1.156 1.156 0 001.156-1.156v-5.971a25.316 25.316 0 012.312-4.002v9.973a1.157 1.157 0 001.157 1.156h6.937a1.156 1.156 0 001.156-1.156V22.455a25.48 25.48 0 012.313-1.04v19.054A1.157 1.157 0 0037 41.625h6.938a1.156 1.156 0 001.156-1.156V19.656a25.337 25.337 0 0117.141 6.661l-17.62 17.62H19.706a25.42 25.42 0 01.21-2.312zm50.616 3.469A25.467 25.467 0 0146.25 70.502v-24.93l17.62-17.62a25.337 25.337 0 016.661 17.142z" fill="#CECECE"/><path d="M42.781 12.719h-4.625v26.593h4.625V12.72zm-11.562 8.094h-4.625v18.5h4.625v-18.5zm-8.753 35.879a25.26 25.26 0 01-2.781-10.442H40.74L22.466 56.692zm-2.81-43.973h-4.625v26.593h4.625V12.72zm24.282 57.783a25.446 25.446 0 01-20.322-11.804l20.322-11.61v23.414z" fill="#CECECE"/><path d="M5.781 10.406a3.433 3.433 0 011.823.531l6.475-5.181a3.435 3.435 0 01-.204-1.131 3.469 3.469 0 116.938 0 3.454 3.454 0 01-.14.925l6.225 4.351a3.424 3.424 0 014.017 0l6.224-4.351A3.45 3.45 0 0137 4.625a3.49 3.49 0 111.46 2.818L32.235 11.8a3.47 3.47 0 11-6.659 0l-6.224-4.357a3.41 3.41 0 01-3.83.115L9.047 12.74c.131.364.2.748.203 1.135a3.469 3.469 0 11-3.469-3.469z" fill="#CECECE"/></svg>