<svg width="127" height="88" fill="none" xmlns="http://www.w3.org/2000/svg"><path d="M55.144 33.798c0 9.25-1.423 17.313-4.27 24.192-2.846 6.64-6.522 12.214-11.028 16.72-4.507 4.27-9.725 7.472-15.654 9.606-5.692 1.898-11.385 2.846-17.077 2.846V74.711c6.167 0 11.86-2.016 17.077-6.048 5.455-4.27 8.657-9.962 9.606-17.077-.712.474-1.542.83-2.49 1.067-1.898.474-4.033.712-6.404.712-7.116 0-13.045-2.61-17.789-7.827C2.372 40.083 0 33.798 0 26.682c0-7.115 2.372-13.281 7.115-18.5C12.096 2.729 18.618 0 26.682 0c9.013 0 16.01 3.44 20.99 10.317 4.981 6.641 7.472 14.468 7.472 23.48zm71.152 0c0 9.25-1.423 17.313-4.269 24.192-2.846 6.64-6.522 12.214-11.028 16.72-4.507 4.27-9.725 7.472-15.654 9.606-5.692 1.898-11.385 2.846-17.077 2.846V74.711c6.167 0 11.86-2.016 17.077-6.048 5.455-4.27 8.657-9.962 9.606-17.077-.712.474-1.542.83-2.491 1.067-1.897.474-4.032.712-6.403.712-7.116 0-13.045-2.61-17.789-7.827-4.743-5.455-7.115-11.74-7.115-18.856 0-7.115 2.372-13.281 7.115-18.5C83.248 2.729 89.771 0 97.835 0c9.013 0 16.01 3.44 20.99 10.317 4.981 6.641 7.471 14.468 7.471 23.48z" fill="#00CFFC" fill-opacity=".12"/></svg>